# xmcd
#
# Track frame offsets:
#	150
#	18909
#	35718
#	51418
#	69561
#	83237
#	101996
#	118805
#	134505
#	152648
#	177724
#
# Disc length: 2377 seconds
#
# Revision: 1
# Processed by: cddbd v1.5.1PL2 Copyright (c) Steve Scherf et al.
# Submitted via: audiograbber 1.83.01
#
DISCID=a209470b
DTITLE=Various Artist - Priddis Karaoke 1476G
DYEAR=2002
DGENRE=Karaoke
TTITLE0=Kenny Chesney - Young
TTITLE1=George Strait - Living and Living Well
TTITLE2=Brad Paisley - I'm Gonna Miss Her
TTITLE3=Anthony Smith - If That Ain't Country
TTITLE4=Brooks and Dunn - My Heart Is Lost To You
TTITLE5=Kenny Chesney - Young (With Vocals)
TTITLE6=George Strait - Living  And Living Well (With Vocals)
TTITLE7=Brad Paisley - I'm Gonna Miss Her (With Vocals)
TTITLE8=Anthony Smith - If That Ain't Country (With Vocals)
TTITLE9=Brooks and Dunn - My Heart Is Lost To You (With Vocals)
TTITLE10=Misc. - Data Track
EXTD=
EXTT0=
EXTT1=
EXTT2=
EXTT3=
EXTT4=
EXTT5=
EXTT6=
EXTT7=
EXTT8=
EXTT9=
EXTT10=
PLAYORDER=
